<svg xmlns="http://www.w3.org/2000/svg" xmlns:xlink="http://www.w3.org/1999/xlink" viewBox="0 0 111.5 128.1">
  <defs>
    <linearGradient id="a" x1="55.63" x2="55.63" y1="128.14" y2=".14" gradientUnits="userSpaceOnUse">
      <stop offset="0" stop-color="#46cfbe"/>
      <stop offset=".42" stop-color="#46c1c8"/>
      <stop offset="1" stop-color="#46a6dc"/>
    </linearGradient>
    <linearGradient id="b" x1="97.4" x2="152.92" y1="172.55" y2="172.55" gradientTransform="rotate(180 76.5 110.4)" xlink:href="#a"/>
    <linearGradient id="c" x1="8.74" x2="119.6" y1="-690.07" y2="-690.07" gradientTransform="translate(-8.5 770.1)" xlink:href="#a"/>
  </defs>
  <path fill="url(#a)" d="M111 32L55.4.1.1 32.3l.2 64 55.5 31.8L111.1 96l-.1-64z"/>
  <path fill="url(#b)" d="M.1 32.3L55.6.1.3 96.3l-.2-64z" opacity=".4"/>
  <path fill="url(#c)" d="M55.6 128.1L111.1 96l-.1-64L.3 96.3l55.3 31.8z"/>
  <path fill="#fff" d="M111 32L55.6.1l14.3 55.8-14.3 72.2L111.1 96l-.1-64z" opacity=".15"/>
  <path fill="none" stroke="#fff" stroke-miterlimit="10" stroke-width="1.14" d="M55.6.1l14.3 55.8L111.1 96M69.9 55.9L.3 96.3" opacity=".35"/>
  <path fill="#fff" d="M75.7 66V54.2H63.9l-6.1-6.1 12.6-5.2V27H40.8v15.9l12.6 5.2-6.1 6.1H35.5V66l-8.3 8.3 8.3 8.3v11.8h11.8l8.3 8.3 8.3-8.3h11.8V82.6l8.3-8.3zM64 29.2h4.1v12.1L64 43zM47.2 43l-4.1-1.7V29.2h4.1zm3.9 1.6V29.2h9v15.4l-4.5 1.9zM71.9 81v9.5h-9.6l-6.7 6.8-6.7-6.7h-9.5V81l-6.8-6.7 6.7-6.7v-9.5h9.5l6.8-6.7 6.7 6.7h9.5v9.5l6.8 6.7z"/>
</svg>
