<svg xmlns="http://www.w3.org/2000/svg" viewBox="0 0 111.5 128.3">
  <defs>
    <linearGradient id="a" x1="55.83" x2="55.83" y1="128.28" y2=".28" gradientUnits="userSpaceOnUse">
      <stop offset="0" stop-color="#54df55"/>
      <stop offset=".37" stop-color="#54d463"/>
      <stop offset="1" stop-color="#54bc84"/>
    </linearGradient>
    <linearGradient id="b" x1=".31" x2="55.83" y1="48.36" y2="48.36" gradientUnits="userSpaceOnUse">
      <stop offset="0" stop-color="#54c055"/>
      <stop offset=".37" stop-color="#54bf63"/>
      <stop offset="1" stop-color="#54bc84"/>
    </linearGradient>
    <linearGradient id="c" x1="8.74" x2="119.6" y1="-886.07" y2="-886.07" gradientTransform="translate(-8.2 966.3)" gradientUnits="userSpaceOnUse">
      <stop offset="0" stop-color="#54df55"/>
      <stop offset=".27" stop-color="#61de56"/>
      <stop offset=".58" stop-color="#5cd267"/>
      <stop offset="1" stop-color="#54bc84"/>
    </linearGradient>
  </defs>
  <path fill="url(#a)" d="M111.2 32.1L55.7.3.3 32.4l.2 64L56 128.3l55.4-32.2-.2-64z"/>
  <path fill="url(#b)" d="M.3 32.4L55.8.3.5 96.4l-.2-64z" opacity=".6"/>
  <path fill="url(#c)" d="M55.8 128.3l55.6-32.2-.2-64L.5 96.4l55.3 31.9z"/>
  <path fill="#fff" d="M111.2 32.1L55.8.3 70.1 56l-14.3 72.3 55.6-32.2-.2-64z" opacity=".1"/>
  <path fill="none" stroke="#fff" stroke-miterlimit="10" stroke-width="1.14" d="M.5 96.4L55.8.3M111.2 32.1L.5 96.4" opacity=".35"/>
  <path fill="#fff" d="M71.6 72.3a4.5 4.5 0 0 0-2.8-1.3 5.7 5.7 0 0 1-3.6-1.6 5.1 5.1 0 0 1-1.5-3.5 4.5 4.5 0 0 0-1.3-2.8 4.4 4.4 0 0 0-6.2 0l-2 2L34 45.5a3.8 3.8 0 0 1-1.1-1.6 5.6 5.6 0 0 0-1.3-3c-1.8-1.5-4.8-4-6.7-5.3a1.3 1.3 0 0 0-1.8.1l-1.5 1.5a1.3 1.3 0 0 0-.1 1.8c1.3 1.9 3.8 4.9 5.3 6.7a5.6 5.6 0 0 0 3 1.3 3.8 3.8 0 0 1 1.6 1.1L51 68.3l-2 2a4.3 4.3 0 0 0 0 6.2 4.5 4.5 0 0 0 2.8 1.3 5.1 5.1 0 0 1 3.5 1.5 5.7 5.7 0 0 1 1.6 3.6 4.3 4.3 0 0 0 1.3 2.8l13 13a7.7 7.7 0 0 0 10.8 0l2.6-2.6a7.6 7.6 0 0 0 0-10.8zM83 94.5l-2.6 2.6a5.4 5.4 0 0 1-7.6 0l-13-13a2 2 0 0 1-.6-1.4 8.3 8.3 0 0 0-2.3-5 7.7 7.7 0 0 0-5-2.2 1.8 1.8 0 0 1-1.3-.6 2.2 2.2 0 0 1 0-3l1.6-1.6 5.6-5.6a2.2 2.2 0 0 1 3 0 1.8 1.8 0 0 1 .6 1.3 7.7 7.7 0 0 0 2.2 5 8.3 8.3 0 0 0 5 2.3 2 2 0 0 1 1.4.6l13 13a5.4 5.4 0 0 1 0 7.6z"/>
  <path fill="#fff" d="M91.7 42.9L90 42l-11.6 6.4-4.4-2.7v-5.2l12-6.6.3-1.8a16.2 16.2 0 0 0-22.2.6A16 16 0 0 0 59.8 47a2.4 2.4 0 0 1-.7 2.1L51 57.2a1.2 1.2 0 0 0 0 1.6 1 1 0 0 0 1.6 0l8.1-8.1a4.6 4.6 0 0 0 1.3-4.2 13.8 13.8 0 0 1 21.5-13.8l-11.1 6.1-.6 1v6.5l.5 1 5.5 3.4h1.1l10.6-5.8a13.9 13.9 0 0 1-4.1 9 13.4 13.4 0 0 1-12.6 3.7 4.9 4.9 0 0 0-4.6 1.3l-2.7 2.8a1 1 0 0 0 0 1.6 1.1 1.1 0 0 0 .8.3 1.3 1.3 0 0 0 .8-.3l2.8-2.8a2.5 2.5 0 0 1 2.3-.7A15.4 15.4 0 0 0 87 55.5a16.3 16.3 0 0 0 4.7-12.6zM47.6 79.6l-15 14.9a5.7 5.7 0 0 1-7.9 0 5.6 5.6 0 0 1 0-7.8l20-20a1 1 0 0 0 0-1.6 1.2 1.2 0 0 0-1.6 0l-20 20a7.6 7.6 0 0 0-2.3 5.5 7.5 7.5 0 0 0 2.3 5.5 7.8 7.8 0 0 0 11.1 0l15-14.9a1.2 1.2 0 0 0 0-1.6 1 1 0 0 0-1.6 0zM69.5 77.5a1.131 1.131 0 0 0-1.6 1.6l11.5 11.5a1.1 1.1 0 0 0 .8.3 1.3 1.3 0 0 0 .8-.3 1.2 1.2 0 0 0 0-1.6zM65.1 81.9a1.2 1.2 0 0 0-1.6 0 1 1 0 0 0 0 1.6L74.9 95a1.2 1.2 0 0 0 1.6 0 1 1 0 0 0 0-1.6z"/>
</svg>
