<svg xmlns="http://www.w3.org/2000/svg" xmlns:xlink="http://www.w3.org/1999/xlink" viewBox="0 0 111.2 128.1">
  <defs>
    <linearGradient id="a" x1="55.59" x2="55.59" y1="128.14" y2=".22" gradientUnits="userSpaceOnUse">
      <stop offset="0" stop-color="#3a80b2"/>
      <stop offset=".34" stop-color="#4872ad"/>
      <stop offset=".99" stop-color="#6e4c9e"/>
      <stop offset="1" stop-color="#6e4c9e"/>
    </linearGradient>
    <linearGradient id="b" x1="97.4" x2="152.88" y1="-23.41" y2="-23.41" gradientTransform="rotate(180 76.5 12.4)" gradientUnits="userSpaceOnUse">
      <stop offset="0" stop-color="#ff6724"/>
      <stop offset=".28" stop-color="#fb5924"/>
      <stop offset=".81" stop-color="#f13324"/>
      <stop offset="1" stop-color="#ed2424"/>
    </linearGradient>
    <linearGradient id="c" x1="8.77" x2="119.56" y1="-494.12" y2="-494.12" gradientTransform="translate(-8.5 574.1)" xlink:href="#a"/>
  </defs>
  <path fill="url(#a)" d="M110.9 32L55.4.2.1 32.4l.2 63.9 55.5 31.8L111.1 96l-.2-64z"/>
  <path fill="url(#b)" d="M.1 32.3L55.6.1.3 96.2.1 32.3z" opacity=".1"/>
  <path fill="url(#c)" d="M55.6 128.1l55.5-32.2-.2-63.9L.3 96.2l55.3 31.9z"/>
  <path fill="#fff" d="M110.9 32L55.6.1l28.6 111.4 26.9-15.6-.2-63.9z" opacity=".15"/>
  <path fill="none" stroke="#fff" stroke-miterlimit="10" stroke-width="1.14" d="M55.6.1l14.3 55.7M110.9 32L.3 96.2" opacity=".35"/>
  <path fill="url(#b)" d="M.1 32.3L55.6.1.3 96.2.1 32.3z" opacity=".1"/>
  <path fill="url(#c)" d="M55.6 128.1l55.5-32.2-.2-63.9L.3 96.2l55.3 31.9z"/>
  <path fill="#fff" d="M110.9 32L55.6.1l28.6 111.4 26.9-15.6-.2-63.9z" opacity=".15"/>
  <path fill="none" stroke="#fff" stroke-miterlimit="10" stroke-width="1.14" d="M55.6.1l14.3 55.7M110.9 32L.3 96.2" opacity=".35"/>
  <path fill="#fff" d="M74.3 38.6H37.7a7.9 7.9 0 0 0-8 7.9v36.7a7.9 7.9 0 0 0 8 7.9h36.6a7.9 7.9 0 0 0 8-7.9V46.5a7.9 7.9 0 0 0-8-7.9zM80 76.4a12.5 12.5 0 0 1-12.5 12.5h-23A12.5 12.5 0 0 1 32 76.4V53.3a12.5 12.5 0 0 1 12.5-12.4h23A12.5 12.5 0 0 1 80 53.3z"/>
  <path fill="#fff" d="M56 59.2a5.7 5.7 0 0 0-5.6 5.7 5.6 5.6 0 0 0 11.2 0 5.7 5.7 0 0 0-5.6-5.7zM44.6 59.8a5.8 5.8 0 1 0-5.8-5.8 5.8 5.8 0 0 0 5.8 5.8zM67.4 48.2a5.8 5.8 0 1 0 5.8 5.8 5.8 5.8 0 0 0-5.8-5.8zM44.6 69.9a5.8 5.8 0 1 0 5.8 5.8 5.8 5.8 0 0 0-5.8-5.8zM67.4 69.9a5.8 5.8 0 1 0 5.8 5.8 5.8 5.8 0 0 0-5.8-5.8z"/>
</svg>
