<svg xmlns="http://www.w3.org/2000/svg" xmlns:xlink="http://www.w3.org/1999/xlink" viewBox="0 0 111.3 128.1">
  <defs>
    <linearGradient id="a" x1="55.63" x2="55.63" y1="128.11" y2=".11" gradientUnits="userSpaceOnUse">
      <stop offset="0" stop-color="#d8eb58"/>
      <stop offset=".49" stop-color="#cadd58"/>
      <stop offset="1" stop-color="#b6ca58"/>
    </linearGradient>
    <linearGradient id="b" x1="41.88" x2="97.4" y1="924.71" y2="924.71" gradientTransform="rotate(180 76.5 502.35)" xlink:href="#a"/>
    <linearGradient id="c" x1="42.13" x2="152.99" y1="-9.44" y2="-9.44" gradientTransform="rotate(180 76.55 19.4)" xlink:href="#a"/>
    <linearGradient id="d" x1="27.87" x2="27.87" y1="128.11" y2=".11" gradientUnits="userSpaceOnUse">
      <stop offset="0" stop-color="#efeb58"/>
      <stop offset=".32" stop-color="#e1e358"/>
      <stop offset=".92" stop-color="#bbcd58"/>
      <stop offset="1" stop-color="#b6ca58"/>
    </linearGradient>
  </defs>
  <path fill="url(#a)" d="M111 32L55.4.1.1 32.3l.2 64 55.5 31.8L111.1 96l-.1-64z"/>
  <path fill="url(#b)" d="M111.1 96l-55.5 32.1L111 32l.1 64z" opacity=".4"/>
  <path fill="url(#c)" d="M55.6.1L.1 32.3l.2 64L111 32 55.6.1z" opacity=".5"/>
  <path fill="url(#d)" d="M.3 96.3l55.3 31.8-14.2-55.7L55.6.1.1 32.3l.2 64z"/>
  <path fill="none" stroke="#fff" stroke-miterlimit="10" stroke-width="1.14" d="M55.6.1L41.4 72.4M.3 96.3L111 32" opacity=".35"/>
  <path fill="#fff" d="M51 55.1l-10 1.5 7.2 7.1-1.7 10 9-4.8 9 4.8-1.7-10 7.2-7.1-10-1.5-4.5-9.1zm14.2 3.1l-4.9 4.7 1.2 6.6-6-3.1-5.9 3.1 1.1-6.6-4.8-4.7 6.6-1 3-6 3 6z"/>
  <path fill="#fff" d="M83.3 36.2c-11-1-18.7-3.3-26.6-8.1l-1.2-.7-1.2.8c-7.6 4.7-15.3 7-26.6 8l-2 .2V64c0 17.8 10.6 24.5 21.8 31.6 2.2 1.4 4.5 2.8 6.7 4.4l1.3.9 1.3-.9q3.6-2.6 7.2-4.8c11-7 21.4-13.6 21.4-31.2V36.4zM80.8 64c0 15.1-8.5 20.5-19.3 27.4l-6 3.9-5.6-3.5c-11-7-19.7-12.5-19.7-27.8V40.5c10.2-1.1 18-3.5 25.3-7.8 7.6 4.4 15.2 6.7 25.3 7.8z"/>
</svg>
