<svg xmlns="http://www.w3.org/2000/svg" viewBox="0 0 111.8 128.3">
  <defs>
    <linearGradient id="a" x1="55.8" x2="55.8" y1="128.28" y2=".28" gradientUnits="userSpaceOnUse">
      <stop offset="0" stop-color="#f6d01f"/>
      <stop offset=".33" stop-color="#f6c21f"/>
      <stop offset=".95" stop-color="#f69c1f"/>
      <stop offset="1" stop-color="#f6991f"/>
    </linearGradient>
    <linearGradient id="b" x1="41.88" x2="97.4" y1="-635.38" y2="-635.38" gradientTransform="rotate(180 76.6 -281.55)" gradientUnits="userSpaceOnUse">
      <stop offset="0" stop-color="#ff6724"/>
      <stop offset=".28" stop-color="#fb5924"/>
      <stop offset=".81" stop-color="#f13324"/>
      <stop offset="1" stop-color="#ed2424"/>
    </linearGradient>
  </defs>
  <path fill="url(#a)" d="M111.1 32.1L55.6.3.3 32.4l.2 64L56 128.3l55.3-32.2-.2-64z"/>
  <path fill="#fff" d="M.3 32.4L55.8.3.5 96.4l-.2-64z" opacity=".17"/>
  <path fill="url(#b)" d="M111.1 32.1L83.6 16.3l-27.8 112 55.5-32.2-.2-64z" opacity=".14"/>
  <path fill="none" stroke="#fff" stroke-miterlimit="10" stroke-width="1.14" d="M111.3 96.1L.3 32.4M55.8.3l55.5 95.8" opacity=".35"/>
  <path fill="#fff" d="M.3 32.4L55.8.3.5 96.4l-.2-64z" opacity=".17"/>
  <path fill="url(#b)" d="M111.1 32.1L83.6 16.3l-27.8 112 55.5-32.2-.2-64z" opacity=".14"/>
  <path fill="none" stroke="#fff" stroke-miterlimit="10" stroke-width="1.14" d="M111.3 96.1L.3 32.4M55.8.3l55.5 95.8" opacity=".35"/>
  <path fill="#fff" d="M81.8 64.3l2.2-2.7c4.8-6.3 6.1-11.9 3.8-15.8s-7.8-5.6-15.5-4.6l-3.5.6c-3-8.8-7.6-14.5-13-14.5s-10 5.7-13 14.5l-3.5-.6c-7.7-1-13.3.7-15.5 4.6s-1 9.5 3.8 15.8l2.2 2.7-2.2 2.7c-4.8 6.3-6.1 11.9-3.8 15.8s5.8 4.9 11.4 4.9l4.1-.3 3.5-.6c3 8.8 7.6 14.5 13 14.5s10-5.7 13-14.5l3.5.6 4.1.3c5.6 0 9.6-1.7 11.4-4.9s1-9.5-3.8-15.8zm-9.3-20.8l3.9-.3c4.7 0 8.1 1.3 9.5 3.7s.4 7.9-3.7 13.3l-2 2.4a80.6 80.6 0 0 0-8.6-7.4A69.8 69.8 0 0 0 69.5 44zm-9.7 32.9a58.1 58.1 0 0 1-7 3.6 58.1 58.1 0 0 1-7-3.6 73.9 73.9 0 0 1-6.6-4.2 68.5 68.5 0 0 1-.4-7.9 68.5 68.5 0 0 1 .4-7.9 73.9 73.9 0 0 1 6.6-4.2 58.1 58.1 0 0 1 7-3.6 58.1 58.1 0 0 1 7 3.6 73.9 73.9 0 0 1 6.6 4.2 68.5 68.5 0 0 1 .4 7.9 68.5 68.5 0 0 1-.4 7.9 73.9 73.9 0 0 1-6.6 4.2zm6.3-1.2a69.4 69.4 0 0 1-1.9 8.9 51.2 51.2 0 0 1-8.6-2.9 53.6 53.6 0 0 0 5.3-2.8c1.8-1 3.5-2.1 5.2-3.2zm-16.1 6a51.2 51.2 0 0 1-8.6 2.9 69.4 69.4 0 0 1-1.9-8.9c1.7 1.1 3.4 2.2 5.2 3.2a53.6 53.6 0 0 0 5.3 2.8zM39.7 70.4a68.2 68.2 0 0 1-6.8-6.1 68.2 68.2 0 0 1 6.8-6.1c-.1 2-.2 4-.2 6.1s.1 4.1.2 6.1zm2.8-17a69.4 69.4 0 0 1 1.9-8.9 51.2 51.2 0 0 1 8.6 2.9 53.6 53.6 0 0 0-5.3 2.8c-1.8 1-3.5 2.1-5.2 3.2zm16.1-6a51.2 51.2 0 0 1 8.6-2.9 69.4 69.4 0 0 1 1.9 8.9c-1.7-1.1-3.4-2.2-5.2-3.2a53.6 53.6 0 0 0-5.3-2.8zm13.3 10.8a68.2 68.2 0 0 1 6.8 6.1 68.2 68.2 0 0 1-6.8 6.1c.1-2 .2-4 .2-6.1s-.1-4.1-.2-6.1zM55.8 29.6c4.3 0 8.2 5 10.7 12.7a76.9 76.9 0 0 0-10.7 3.8 76.9 76.9 0 0 0-10.7-3.8c2.5-7.7 6.4-12.7 10.7-12.7zM29.4 60.2C25.3 54.8 24 50 25.7 46.9s4.8-3.7 9.5-3.7l3.9.3 3 .5A69.8 69.8 0 0 0 40 55.2a80.6 80.6 0 0 0-8.6 7.4zm9.7 24.9c-6.8.9-11.6-.4-13.4-3.4s-.4-7.9 3.7-13.3l2-2.4a80.6 80.6 0 0 0 8.6 7.4 69.8 69.8 0 0 0 2.1 11.2zM55.8 99c-4.3 0-8.2-5-10.7-12.7a76.9 76.9 0 0 0 10.7-3.8 76.9 76.9 0 0 0 10.7 3.8C64 94 60.1 99 55.8 99zm30.1-17.3c-1.8 3-6.6 4.3-13.4 3.4l-3-.5a69.8 69.8 0 0 0 2.1-11.2 80.6 80.6 0 0 0 8.6-7.4l2 2.4c4.1 5.4 5.4 10.2 3.7 13.3z"/>
  <path fill="#fff" d="M49.6 59.6H62a2.3 2.3 0 1 0 0-4.5H49.6a2.3 2.3 0 1 0 0 4.5zM62 62H49.6a2.3 2.3 0 0 0 0 4.6H62a2.3 2.3 0 0 0 0-4.6zM62 69H49.6a2.3 2.3 0 1 0 0 4.5H62a2.3 2.3 0 1 0 0-4.5z"/>
</svg>
