<svg xmlns="http://www.w3.org/2000/svg" xmlns:xlink="http://www.w3.org/1999/xlink" viewBox="0 0 111.7 128.3">
  <defs>
    <linearGradient id="a" x1="55.92" x2="55.92" y1="128" gradientUnits="userSpaceOnUse">
      <stop offset="0" stop-color="#49d7a0"/>
      <stop offset=".44" stop-color="#49c9a5"/>
      <stop offset="1" stop-color="#49b1ae"/>
    </linearGradient>
    <linearGradient id="b" x1="42.13" x2="152.99" y1="-205.44" y2="-205.44" gradientTransform="rotate(180 76.7 -78.7)" xlink:href="#a"/>
  </defs>
  <path fill="url(#a)" d="M111.3 31.8L55.7 0 .4 32.2l.2 64L56.1 128l55.3-32.2-.1-64z"/>
  <path fill="#fff" d="M111.4 95.8L55.9 128l55.4-96.2.1 64z" opacity=".15"/>
  <path fill="url(#b)" d="M55.9 0L.4 32.2l.2 64 110.7-64.4L55.9 0z"/>
  <path fill="#fff" d="M.6 96.2L55.9 128 41.6 72.3 55.9 0 .4 32.2l.2 64z" opacity=".15"/>
  <path fill="none" stroke="#fff" stroke-miterlimit="10" stroke-width="1.14" d="M41.6 72.3L.4 32.2M111.3 31.8L55.9 128M.6 96.2l110.7-64.4" opacity=".35"/>
  <path fill="#fff" d="M27.9 64l17.3-17.4a1.9 1.9 0 0 0 0-2.8 2.1 2.1 0 0 0-2.8 0L23.6 62.6a2.1 2.1 0 0 0 0 2.8l18.8 18.8a1.9 1.9 0 0 0 2.8 0 1.9 1.9 0 0 0 0-2.8zM88 62.6L69.2 43.8a2.1 2.1 0 0 0-2.8 0 1.9 1.9 0 0 0 0 2.8L83.8 64 66.4 81.4a1.9 1.9 0 0 0 0 2.8 1.9 1.9 0 0 0 2.8 0L88 65.4a1.9 1.9 0 0 0 0-2.8zM62.5 38.6a1.9 1.9 0 0 0-2.4 1.4L47.7 86.9a2.1 2.1 0 0 0 1.4 2.5h.5a2 2 0 0 0 2-1.4l12.3-46.9a2 2 0 0 0-1.4-2.5z"/>
</svg>
