<svg xmlns="http://www.w3.org/2000/svg" xmlns:xlink="http://www.w3.org/1999/xlink" viewBox="0 0 111 128">
  <defs>
    <linearGradient id="b" x1="55.45" x2="55.45" y1="128" y2=".15" gradientUnits="userSpaceOnUse">
      <stop offset="0" stop-color="#e46566"/>
      <stop offset=".33" stop-color="#d65b66"/>
      <stop offset=".96" stop-color="#b04366"/>
      <stop offset="1" stop-color="#ae4166"/>
    </linearGradient>
    <linearGradient id="a" x1="55.45" x2="110.91" y1="79.98" y2="79.98" gradientUnits="userSpaceOnUse">
      <stop offset="0" stop-color="#ff6724"/>
      <stop offset=".28" stop-color="#fb5924"/>
      <stop offset=".81" stop-color="#f13324"/>
      <stop offset="1" stop-color="#ed2424"/>
    </linearGradient>
    <linearGradient id="c" x1="8.55" x2="64" y1="-335.93" y2="-335.93" gradientTransform="translate(-8.5 392)" xlink:href="#a"/>
    <linearGradient id="d" x1="42.12" x2="152.85" y1="-597.38" y2="-597.38" gradientTransform="rotate(180 76.45 -274.7)" xlink:href="#b"/>
  </defs>
  <path fill="url(#b)" d="M110.7 32L55.3.2 0 32.3l.2 63.9L55.6 128l55.3-32.1-.2-63.9z"/>
  <path fill="url(#a)" d="M110.9 95.9L55.5 128l55.2-96 .2 63.9z" opacity=".3"/>
  <path fill="url(#c)" d="M.2 96.2L27.7 112 55.5.2 0 32.3l.2 63.9z" opacity=".05"/>
  <path fill="url(#d)" d="M55.5 0L.1 32.1.3 96l110.5-64.2L55.5 0z"/>
  <path fill="none" stroke="#fff" stroke-miterlimit="10" stroke-width="1.14" d="M55.5.2L52.9 128M54.2 64.8L110.7 32" opacity=".35"/>
  <path fill="url(#a)" d="M110.9 95.9L55.5 128l55.2-96 .2 63.9z" opacity=".3"/>
  <path fill="url(#c)" d="M.2 96.2L27.7 112 55.5.2 0 32.3l.2 63.9z" opacity=".05"/>
  <path fill="url(#d)" d="M55.5 0L.1 32.1.3 96l110.5-64.2L55.5 0z"/>
  <path fill="none" stroke="#fff" stroke-miterlimit="10" stroke-width="1.14" d="M55.5.2L52.9 128M54.2 64.8L110.7 32" opacity=".35"/>
  <path fill="#fff" d="M90.4 51.8L61.9 35.3a12.5 12.5 0 0 0-12.7 0L20.7 51.8a6.2 6.2 0 0 0-3.2 5.5 6.4 6.4 0 0 0 3.2 5.6l10.7 6.2v13.2l.2.3c.2.3 5.6 8.3 23.8 8.3s23.6-8 23.9-8.3V69.3l5.2-3v10.4a2.3 2.3 0 1 0 4.5 0v-13l1.3-.8a6.3 6.3 0 0 0 3.3-5.6 6.1 6.1 0 0 0-3.2-5.5zM77.2 81.6c-1.1 1.2-6.7 7-21.8 7s-20.7-5.8-21.7-7V70.4l15.5 9a13.3 13.3 0 0 0 6.4 1.7 12.7 12.7 0 0 0 6.3-1.7l15.3-8.8zm11-22.6L59.7 75.4a8 8 0 0 1-8.2 0L23 59a1.9 1.9 0 0 1-.9-1.7 1.9 1.9 0 0 1 .9-1.6l28.5-16.5a8.2 8.2 0 0 1 8.2 0l28.5 16.5a1.9 1.9 0 0 1 .9 1.6 1.9 1.9 0 0 1-.9 1.7z"/>
</svg>
